<svg width="401" height="473" viewBox="0 0 401 473" fill="none" xmlns="http://www.w3.org/2000/svg">
<rect width="400.25" height="472.676" rx="10" fill="white"/>
<g clip-path="url(#clip0)">
<path d="M299.82 179.977C295.597 175.552 289.765 172.938 283.128 172.938H249.745V172.536C249.745 167.508 247.734 162.682 244.315 159.464C240.896 156.045 236.271 154.034 231.243 154.034H170.912C165.684 154.034 161.058 156.045 157.64 159.464C154.221 162.883 152.21 167.508 152.21 172.536V172.938H119.028C112.391 172.938 106.559 175.552 102.336 179.977C98.1131 184.2 95.2976 190.233 95.2976 196.668V296.818C95.2976 303.454 97.912 309.286 102.336 313.509C106.559 317.732 112.593 320.548 119.028 320.548H283.128C289.765 320.548 295.597 317.933 299.82 313.509C304.043 309.286 306.858 303.253 306.858 296.818V196.668C306.858 190.032 304.244 184.2 299.82 179.977ZM296.401 296.818H296.2C296.2 300.437 294.792 303.655 292.379 306.068C289.966 308.482 286.748 309.889 283.128 309.889H119.028C115.408 309.889 112.19 308.482 109.777 306.068C107.364 303.655 105.956 300.437 105.956 296.818V196.668C105.956 193.048 107.364 189.831 109.777 187.417C112.19 185.004 115.408 183.596 119.028 183.596H157.841C160.857 183.596 163.271 181.183 163.271 178.167V172.335C163.271 170.123 164.075 168.112 165.483 166.704C166.89 165.296 168.901 164.492 171.114 164.492H231.243C233.456 164.492 235.467 165.296 236.874 166.704C238.282 168.112 239.087 170.123 239.087 172.335V178.167C239.087 181.183 241.5 183.596 244.516 183.596H283.329C286.949 183.596 290.167 185.004 292.58 187.417C294.993 189.831 296.401 193.048 296.401 196.668V296.818Z" fill="#DCDCDC"/>
<path d="M201.078 197.271C187.403 197.271 174.935 202.902 166.086 211.751C157.036 220.801 151.607 233.068 151.607 246.743C151.607 260.418 157.237 272.886 166.086 281.735C175.136 290.785 187.403 296.214 201.078 296.214C214.753 296.214 227.221 290.583 236.07 281.735C245.12 272.685 250.549 260.418 250.549 246.743C250.549 233.068 244.919 220.599 236.07 211.751C227.221 202.902 214.753 197.271 201.078 197.271ZM228.428 274.294C221.389 281.132 211.736 285.556 201.078 285.556C190.42 285.556 180.767 281.132 173.728 274.294C166.689 267.255 162.466 257.602 162.466 246.944C162.466 236.286 166.89 226.633 173.728 219.594C180.767 212.555 190.42 208.332 201.078 208.332C211.736 208.332 221.389 212.756 228.428 219.594C235.467 226.633 239.69 236.286 239.69 246.944C239.891 257.602 235.467 267.255 228.428 274.294Z" fill="#DCDCDC"/>
<path d="M272.671 216.779C278.113 216.779 282.525 212.367 282.525 206.924C282.525 201.482 278.113 197.07 272.671 197.07C267.229 197.07 262.817 201.482 262.817 206.924C262.817 212.367 267.229 216.779 272.671 216.779Z" fill="#DCDCDC"/>
</g>
<defs>
<clipPath id="clip0">
<rect width="211.561" height="211.561" fill="white" transform="translate(95.2976 131.511)"/>
</clipPath>
</defs>
</svg>
