<svg width="290" height="290" viewBox="0 0 290 290" fill="none" xmlns="http://www.w3.org/2000/svg">
<path d="M145 290C225.081 290 290 225.081 290 145C290 64.9187 225.081 0 145 0C64.9187 0 0 64.9187 0 145C0 225.081 64.9187 290 145 290Z" fill="#9CDBFF"/>
<path d="M227 142.281V147.726C226.948 148.021 226.883 148.311 226.849 148.605C226.568 150.974 226.386 153.358 225.998 155.709C224.729 163.35 221.988 170.452 217.913 177.019C211.726 186.989 203.362 194.592 192.851 199.784C186.785 202.795 180.244 204.73 173.518 205.503C172.024 205.676 170.532 205.831 169.038 205.996H111.072C110.78 205.942 110.49 205.855 110.195 205.837C104.35 205.468 98.7264 204.133 93.3663 201.781C81.6968 196.663 72.9959 188.367 67.3004 176.948C64.7836 171.911 63.1549 166.476 62.4862 160.883C62.3219 159.523 62.1616 158.165 62 156.806V151.523C62.0557 151.23 62.1412 150.937 62.1589 150.643C62.4617 145.567 63.5006 140.637 65.3299 135.9C70.2527 123.153 78.8341 113.698 91.0291 107.579C97.3562 104.403 104.1 102.734 111.154 102.364C114.607 102.184 118.058 102.377 121.491 102.839C121.802 102.881 122.25 102.742 122.466 102.52C127.402 97.4657 133.023 93.3599 139.361 90.2479C145.509 87.2299 151.979 85.2845 158.789 84.5059C160.392 84.3221 161.998 84.171 163.603 84.0049H168.545C168.868 84.0553 169.193 84.1124 169.516 84.1505C171.965 84.4364 174.427 84.6161 176.852 85.0232C184.419 86.296 191.463 89.0187 197.982 93.0632C207.977 99.2654 215.594 107.661 220.798 118.23C223.808 124.314 225.74 130.876 226.508 137.623C226.685 139.177 226.836 140.73 227 142.281ZM134.743 107.045C134.842 107.176 134.866 107.237 134.908 107.258C138.302 108.935 141.546 110.901 144.603 113.135C144.796 113.275 145.274 113.216 145.508 113.069C153.911 107.731 163.021 105.89 172.807 107.629C182.396 109.334 190.199 114.137 196.161 121.808C202.911 130.489 205.485 140.305 203.622 151.227C202.372 158.547 199.447 165.114 194.475 170.615C185.404 180.644 174.044 184.792 160.671 183.036C152.439 181.955 145.332 178.395 139.451 172.437C131.902 164.793 124.303 157.199 116.732 149.576C115.723 148.56 114.6 147.744 113.147 147.565C110.609 147.254 108.306 148.524 107.21 150.809C106.232 152.85 106.359 155.151 108.48 157.242C116.92 165.547 125.285 173.929 133.716 182.242C135.159 183.672 136.706 184.993 138.345 186.192C144.504 190.674 151.448 193.153 158.967 194.151C164.869 194.933 170.725 194.765 176.536 193.456C187.62 190.96 196.802 185.289 204.033 176.538C210.004 169.307 213.615 160.997 214.874 151.668C215.604 146.348 215.451 140.944 214.423 135.674C212.746 127.057 209.109 119.346 203.282 112.783C192.164 100.269 178.176 94.6818 161.531 95.9288C155.128 96.4079 149.071 98.2934 143.371 101.284C140.296 102.886 137.403 104.818 134.743 107.045ZM130.67 194.41C130.441 194.197 130.213 193.983 129.985 193.769C126.535 190.503 123.065 187.257 119.655 183.949C118.995 183.31 118.388 182.998 117.454 183.02C114 183.104 110.544 183.119 107.141 182.349C90.2198 178.512 80.3944 160.07 86.6305 143.843C91.5493 131.048 105.166 123.256 118.594 125.659C124.613 126.736 129.896 129.289 134.232 133.772C139.52 139.245 144.966 144.561 150.311 149.978C151.528 151.211 152.925 151.773 154.61 151.532C156.789 151.22 158.523 150.18 159.311 148.039C160.082 145.932 159.709 143.936 158.117 142.32C152.507 136.623 147.03 130.783 141.193 125.328C129.873 114.744 116.523 111.596 101.759 116.097C81.9005 122.145 70.2785 142.701 74.8157 162.985C78.9509 181.466 95.0747 194.437 113.942 194.453C119.21 194.459 124.479 194.456 129.746 194.453C130.007 194.453 130.268 194.43 130.67 194.41Z" fill="white"/>
</svg>
