<svg width="290" height="290" viewBox="0 0 290 290" fill="none" xmlns="http://www.w3.org/2000/svg">
<path d="M145 290C225.081 290 290 225.081 290 145C290 64.9187 225.081 0 145 0C64.9187 0 0 64.9187 0 145C0 225.081 64.9187 290 145 290Z" fill="#9CDBFF"/>
<path d="M120.755 216C133.862 216 144.5 205.397 144.5 192.333V168.667H120.755C107.647 168.667 97.0095 179.269 97.0095 192.333C97.0095 205.397 107.647 216 120.755 216Z" fill="white"/>
<path d="M97.0095 145C97.0095 131.936 107.647 121.333 120.755 121.333H144.5V168.667H120.755C107.647 168.667 97.0095 158.064 97.0095 145Z" fill="white"/>
<path d="M97.0105 97.6667C97.0105 84.6027 107.648 74 120.756 74H144.501V121.333H120.756C107.648 121.333 97.0105 110.731 97.0105 97.6667Z" fill="white"/>
<path d="M144.5 74H168.245C181.353 74 191.991 84.6027 191.991 97.6667C191.991 110.731 181.353 121.333 168.245 121.333H144.5V74Z" fill="white"/>
<path d="M191.991 145C191.991 158.064 181.353 168.667 168.245 168.667C155.138 168.667 144.5 158.064 144.5 145C144.5 131.936 155.138 121.333 168.245 121.333C181.353 121.333 191.991 131.936 191.991 145Z" fill="white"/>
</svg>
