<svg width="290" height="290" viewBox="0 0 290 290" fill="none" xmlns="http://www.w3.org/2000/svg">
<path d="M145 290C225.081 290 290 225.081 290 145C290 64.9187 225.081 0 145 0C64.9187 0 0 64.9187 0 145C0 225.081 64.9187 290 145 290Z" fill="#9CDBFF"/>
<path d="M79.6992 84L92.3218 215.6L145.498 230L197.922 215.6L210.545 84H79.6992Z" fill="white"/>
<path d="M145.498 84V230L197.922 215.6L210.545 84H145.498Z" fill="white"/>
<path d="M184.4 129.448L128.55 129.447L129.484 139.663H184.135L179.719 196.749L145.451 206.716L108.67 195.277V172.127H131.518V179.022L145.455 183.328L158.661 179.018L159.622 161.926H109.025L103.312 107.471H184.4V129.448Z" fill="#9CDBFF"/>
<path d="M145.498 107.471H184.4V129.448H145.498V107.471Z" fill="#9CDBFF"/>
<path d="M159.622 161.926L158.661 179.018L145.498 183.315V206.703L179.719 196.749L184.135 139.663H145.498V161.926H159.622Z" fill="#9CDBFF"/>
</svg>
