<svg width="195" height="33" viewBox="0 0 195 33" fill="none" xmlns="http://www.w3.org/2000/svg">
<path d="M55.5241 6.344C57.3241 6.344 58.9561 6.764 60.4201 7.604C61.9081 8.42 63.0721 9.584 63.9121 11.096C64.7521 12.584 65.1721 14.324 65.1721 16.316C65.1721 18.308 64.7521 20.06 63.9121 21.572C63.0721 23.06 61.9081 24.224 60.4201 25.064C58.9561 25.88 57.3241 26.288 55.5241 26.288C53.0521 26.288 51.1081 25.508 49.6921 23.948V32.984H44.0761V6.632H49.4401V8.864C50.8321 7.184 52.8601 6.344 55.5241 6.344ZM54.5521 21.68C55.9921 21.68 57.1681 21.2 58.0801 20.24C59.0161 19.256 59.4841 17.948 59.4841 16.316C59.4841 14.684 59.0161 13.388 58.0801 12.428C57.1681 11.444 55.9921 10.952 54.5521 10.952C53.1121 10.952 51.9241 11.444 50.9881 12.428C50.0761 13.388 49.6201 14.684 49.6201 16.316C49.6201 17.948 50.0761 19.256 50.9881 20.24C51.9241 21.2 53.1121 21.68 54.5521 21.68ZM87.9362 16.388C87.9362 16.46 87.9002 16.964 87.8282 17.9H73.1762C73.4402 19.1 74.0642 20.048 75.0482 20.744C76.0322 21.44 77.2562 21.788 78.7202 21.788C79.7282 21.788 80.6162 21.644 81.3842 21.356C82.1762 21.044 82.9082 20.564 83.5802 19.916L86.5682 23.156C84.7442 25.244 82.0802 26.288 78.5762 26.288C76.3922 26.288 74.4602 25.868 72.7802 25.028C71.1002 24.164 69.8042 22.976 68.8922 21.464C67.9802 19.952 67.5242 18.236 67.5242 16.316C67.5242 14.42 67.9682 12.716 68.8562 11.204C69.7682 9.668 71.0042 8.48 72.5642 7.64C74.1482 6.776 75.9122 6.344 77.8562 6.344C79.7522 6.344 81.4682 6.752 83.0042 7.568C84.5402 8.384 85.7402 9.56 86.6042 11.096C87.4922 12.608 87.9362 14.372 87.9362 16.388ZM77.8922 10.592C76.6202 10.592 75.5522 10.952 74.6882 11.672C73.8242 12.392 73.2962 13.376 73.1042 14.624H82.6442C82.4522 13.4 81.9242 12.428 81.0602 11.708C80.1962 10.964 79.1402 10.592 77.8922 10.592ZM104.559 15.92C105.711 16.28 106.599 16.832 107.223 17.576C107.871 18.32 108.195 19.208 108.195 20.24C108.195 21.464 107.775 22.544 106.935 23.48C106.095 24.392 104.943 25.1 103.479 25.604C102.015 26.108 100.359 26.36 98.5109 26.36C96.9989 26.36 95.5109 26.204 94.0469 25.892C92.5829 25.58 91.2269 25.112 89.9789 24.488L91.4909 20.564C93.5309 21.548 95.7869 22.04 98.2589 22.04C99.5789 22.04 100.611 21.848 101.355 21.464C102.123 21.056 102.507 20.492 102.507 19.772C102.507 19.148 102.243 18.68 101.715 18.368C101.187 18.032 100.419 17.864 99.4109 17.864H95.4509V14.372H98.9069C99.8909 14.372 100.647 14.216 101.175 13.904C101.703 13.592 101.967 13.136 101.967 12.536C101.967 11.912 101.631 11.432 100.959 11.096C100.311 10.76 99.3749 10.592 98.1509 10.592C96.2789 10.592 94.2389 11.036 92.0309 11.924L90.6629 8.036C93.3509 6.86 95.9669 6.272 98.5109 6.272C100.263 6.272 101.823 6.488 103.191 6.92C104.583 7.352 105.675 7.988 106.467 8.828C107.259 9.644 107.655 10.604 107.655 11.708C107.655 12.62 107.379 13.448 106.827 14.192C106.275 14.912 105.519 15.488 104.559 15.92ZM130.604 6.344C132.572 6.344 134.336 6.776 135.896 7.64C137.456 8.48 138.68 9.656 139.568 11.168C140.456 12.68 140.9 14.396 140.9 16.316C140.9 18.236 140.456 19.952 139.568 21.464C138.68 22.976 137.456 24.164 135.896 25.028C134.336 25.868 132.572 26.288 130.604 26.288C128.9 26.288 127.34 25.976 125.924 25.352C124.508 24.704 123.332 23.804 122.396 22.652C121.46 21.476 120.836 20.132 120.524 18.62H117.86V26H112.28V6.632H117.86V13.76H120.56C121.112 11.504 122.288 9.704 124.088 8.36C125.888 7.016 128.06 6.344 130.604 6.344ZM130.604 21.68C131.972 21.68 133.1 21.2 133.988 20.24C134.9 19.256 135.356 17.948 135.356 16.316C135.356 14.66 134.9 13.352 133.988 12.392C133.1 11.432 131.972 10.952 130.604 10.952C129.212 10.952 128.06 11.432 127.148 12.392C126.26 13.352 125.816 14.66 125.816 16.316C125.816 17.948 126.26 19.256 127.148 20.24C128.06 21.2 129.212 21.68 130.604 21.68ZM163.7 26V14.408L157.904 24.128H155.528L149.876 14.372V26H144.8V6.632H150.668L156.86 17.828L163.448 6.632H168.704L168.776 26H163.7ZM192.983 16.388C192.983 16.46 192.947 16.964 192.875 17.9H178.223C178.487 19.1 179.111 20.048 180.095 20.744C181.079 21.44 182.303 21.788 183.767 21.788C184.775 21.788 185.663 21.644 186.431 21.356C187.223 21.044 187.955 20.564 188.627 19.916L191.615 23.156C189.791 25.244 187.127 26.288 183.623 26.288C181.439 26.288 179.507 25.868 177.827 25.028C176.147 24.164 174.851 22.976 173.939 21.464C173.027 19.952 172.571 18.236 172.571 16.316C172.571 14.42 173.015 12.716 173.903 11.204C174.815 9.668 176.051 8.48 177.611 7.64C179.195 6.776 180.959 6.344 182.903 6.344C184.799 6.344 186.515 6.752 188.051 7.568C189.587 8.384 190.787 9.56 191.651 11.096C192.539 12.608 192.983 14.372 192.983 16.388ZM182.939 10.592C181.667 10.592 180.599 10.952 179.735 11.672C178.871 12.392 178.343 13.376 178.151 14.624H187.691C187.499 13.4 186.971 12.428 186.107 11.708C185.243 10.964 184.187 10.592 182.939 10.592Z" fill="white"/>
<circle cx="13.5" cy="16.5" r="13.5" fill="white"/>
</svg>
